<svg width="86" height="24" viewBox="0 0 86 24" fill="none" xmlns="http://www.w3.org/2000/svg">
<path d="M75.5 22L73.9775 20.6332C68.57 15.7978 65 12.6087 65 8.69482C65 5.50572 67.541 3 70.775 3C72.602 3 74.3555 3.83869 75.5 5.16403C76.6445 3.83869 78.398 3 80.225 3C83.459 3 86 5.50572 86 8.69482C86 12.6087 82.43 15.7978 77.0225 20.6436L75.5 22Z" fill="#FD5103"/>
<path d="M75.5 20L74.2675 18.921C69.89 15.1035 67 12.5858 67 9.49591C67 6.9782 69.057 5 71.675 5C73.154 5 74.5735 5.66213 75.5 6.70845C76.4265 5.66213 77.846 5 79.325 5C81.943 5 84 6.9782 84 9.49591C84 12.5858 81.11 15.1035 76.7325 18.9292L75.5 20Z" fill="#FCFCFC"/>
<path d="M6.91406 6.04102L2.20703 19H0.283203L5.70312 4.78125H6.94336L6.91406 6.04102ZM10.8594 19L6.14258 6.04102L6.11328 4.78125H7.35352L12.793 19H10.8594ZM10.6152 13.7363V15.2793H2.62695V13.7363H10.6152ZM21.484 16.9492V4H23.3004V19H21.6402L21.484 16.9492ZM14.3746 13.834V13.6289C14.3746 12.8216 14.4723 12.0892 14.6676 11.4316C14.8694 10.7676 15.1526 10.1979 15.5172 9.72266C15.8883 9.2474 16.3277 8.88281 16.8355 8.62891C17.3499 8.36849 17.9228 8.23828 18.5543 8.23828C19.2184 8.23828 19.7978 8.35547 20.2926 8.58984C20.7939 8.81771 21.2171 9.15299 21.5621 9.5957C21.9137 10.0319 22.1904 10.5592 22.3922 11.1777C22.594 11.7962 22.734 12.4961 22.8121 13.2773V14.1758C22.7405 14.9505 22.6005 15.6471 22.3922 16.2656C22.1904 16.8841 21.9137 17.4115 21.5621 17.8477C21.2171 18.2839 20.7939 18.6191 20.2926 18.8535C19.7913 19.0814 19.2053 19.1953 18.5348 19.1953C17.9163 19.1953 17.3499 19.0618 16.8355 18.7949C16.3277 18.528 15.8883 18.1536 15.5172 17.6719C15.1526 17.1901 14.8694 16.6237 14.6676 15.9727C14.4723 15.3151 14.3746 14.6022 14.3746 13.834ZM16.191 13.6289V13.834C16.191 14.3613 16.2431 14.8561 16.3473 15.3184C16.4579 15.7806 16.6272 16.1875 16.8551 16.5391C17.0829 16.8906 17.3727 17.1673 17.7242 17.3691C18.0758 17.5645 18.4957 17.6621 18.984 17.6621C19.5829 17.6621 20.0745 17.5352 20.4586 17.2812C20.8492 17.0273 21.1617 16.6921 21.3961 16.2754C21.6305 15.8587 21.8128 15.4062 21.943 14.918V12.5645C21.8648 12.2064 21.7509 11.8613 21.6012 11.5293C21.4579 11.1908 21.2691 10.8913 21.0348 10.6309C20.8069 10.3639 20.5237 10.1523 20.1852 9.99609C19.8531 9.83984 19.4592 9.76172 19.0035 9.76172C18.5087 9.76172 18.0823 9.86589 17.7242 10.0742C17.3727 10.276 17.0829 10.556 16.8551 10.9141C16.6272 11.2656 16.4579 11.6758 16.3473 12.1445C16.2431 12.6068 16.191 13.1016 16.191 13.6289ZM33.173 16.9492V4H34.9895V19H33.3293L33.173 16.9492ZM26.0637 13.834V13.6289C26.0637 12.8216 26.1613 12.0892 26.3566 11.4316C26.5585 10.7676 26.8417 10.1979 27.2062 9.72266C27.5773 9.2474 28.0168 8.88281 28.5246 8.62891C29.0389 8.36849 29.6118 8.23828 30.2434 8.23828C30.9074 8.23828 31.4868 8.35547 31.9816 8.58984C32.4829 8.81771 32.9061 9.15299 33.2512 9.5957C33.6027 10.0319 33.8794 10.5592 34.0812 11.1777C34.2831 11.7962 34.423 12.4961 34.5012 13.2773V14.1758C34.4296 14.9505 34.2896 15.6471 34.0812 16.2656C33.8794 16.8841 33.6027 17.4115 33.2512 17.8477C32.9061 18.2839 32.4829 18.6191 31.9816 18.8535C31.4803 19.0814 30.8944 19.1953 30.2238 19.1953C29.6053 19.1953 29.0389 19.0618 28.5246 18.7949C28.0168 18.528 27.5773 18.1536 27.2062 17.6719C26.8417 17.1901 26.5585 16.6237 26.3566 15.9727C26.1613 15.3151 26.0637 14.6022 26.0637 13.834ZM27.8801 13.6289V13.834C27.8801 14.3613 27.9322 14.8561 28.0363 15.3184C28.147 15.7806 28.3163 16.1875 28.5441 16.5391C28.772 16.8906 29.0617 17.1673 29.4133 17.3691C29.7648 17.5645 30.1848 17.6621 30.673 17.6621C31.272 17.6621 31.7635 17.5352 32.1477 17.2812C32.5383 17.0273 32.8508 16.6921 33.0852 16.2754C33.3195 15.8587 33.5018 15.4062 33.632 14.918V12.5645C33.5539 12.2064 33.44 11.8613 33.2902 11.5293C33.147 11.1908 32.9582 10.8913 32.7238 10.6309C32.496 10.3639 32.2128 10.1523 31.8742 9.99609C31.5422 9.83984 31.1483 9.76172 30.6926 9.76172C30.1978 9.76172 29.7714 9.86589 29.4133 10.0742C29.0617 10.276 28.772 10.556 28.5441 10.9141C28.3163 11.2656 28.147 11.6758 28.0363 12.1445C27.9322 12.6068 27.8801 13.1016 27.8801 13.6289ZM47.9867 8.43359V9.82031H42.2738V8.43359H47.9867ZM44.2074 5.86523H46.0141V16.3828C46.0141 16.7409 46.0694 17.0111 46.1801 17.1934C46.2908 17.3757 46.434 17.4961 46.6098 17.5547C46.7855 17.6133 46.9743 17.6426 47.1762 17.6426C47.3259 17.6426 47.4822 17.6296 47.6449 17.6035C47.8142 17.571 47.9411 17.5449 48.0258 17.5254L48.0355 19C47.8923 19.0456 47.7035 19.0879 47.4691 19.127C47.2413 19.1725 46.9646 19.1953 46.6391 19.1953C46.1964 19.1953 45.7895 19.1074 45.4184 18.9316C45.0473 18.7559 44.751 18.4629 44.5297 18.0527C44.3148 17.6361 44.2074 17.0762 44.2074 16.373V5.86523ZM49.832 13.834V13.6094C49.832 12.8477 49.9427 12.1413 50.1641 11.4902C50.3854 10.8327 50.7044 10.263 51.1211 9.78125C51.5378 9.29297 52.0423 8.91536 52.6348 8.64844C53.2272 8.375 53.8913 8.23828 54.627 8.23828C55.3691 8.23828 56.0365 8.375 56.6289 8.64844C57.2279 8.91536 57.7357 9.29297 58.1523 9.78125C58.5755 10.263 58.8978 10.8327 59.1191 11.4902C59.3405 12.1413 59.4512 12.8477 59.4512 13.6094V13.834C59.4512 14.5957 59.3405 15.3021 59.1191 15.9531C58.8978 16.6042 58.5755 17.1738 58.1523 17.6621C57.7357 18.1439 57.2311 18.5215 56.6387 18.7949C56.0527 19.0618 55.3887 19.1953 54.6465 19.1953C53.9043 19.1953 53.237 19.0618 52.6445 18.7949C52.0521 18.5215 51.5443 18.1439 51.1211 17.6621C50.7044 17.1738 50.3854 16.6042 50.1641 15.9531C49.9427 15.3021 49.832 14.5957 49.832 13.834ZM51.6387 13.6094V13.834C51.6387 14.3613 51.7005 14.8594 51.8242 15.3281C51.9479 15.7904 52.1335 16.2005 52.3809 16.5586C52.6348 16.9167 52.9505 17.1999 53.3281 17.4082C53.7057 17.61 54.1452 17.7109 54.6465 17.7109C55.1413 17.7109 55.5742 17.61 55.9453 17.4082C56.3229 17.1999 56.6354 16.9167 56.8828 16.5586C57.1302 16.2005 57.3158 15.7904 57.4395 15.3281C57.5697 14.8594 57.6348 14.3613 57.6348 13.834V13.6094C57.6348 13.0885 57.5697 12.597 57.4395 12.1348C57.3158 11.666 57.127 11.2526 56.873 10.8945C56.6257 10.5299 56.3132 10.2435 55.9355 10.0352C55.5645 9.82682 55.1283 9.72266 54.627 9.72266C54.1322 9.72266 53.696 9.82682 53.3184 10.0352C52.9473 10.2435 52.6348 10.5299 52.3809 10.8945C52.1335 11.2526 51.9479 11.666 51.8242 12.1348C51.7005 12.597 51.6387 13.0885 51.6387 13.6094Z" fill="#FD5103"/>
</svg>
